<svg width="443" height="481" viewBox="0 0 443 481" fill="none" xmlns="http://www.w3.org/2000/svg">
<path fill-rule="evenodd" clip-rule="evenodd" d="M53.4336 468.667H319.042V469.9H53.4336V468.667Z" fill="#3FB1B5"/>
<path fill-rule="evenodd" clip-rule="evenodd" d="M300.443 481H8.08301V480.046H300.443V481Z" fill="#66B0F0"/>
<path d="M299.153 4.9209V52.7702C299.153 62.1411 291.508 69.7535 282.097 69.7535H228.816C238.227 69.7535 245.872 62.1643 245.872 52.7702V4.9209H299.153Z" fill="white"/>
<path fill-rule="evenodd" clip-rule="evenodd" d="M245.291 4.34277H299.733V52.7706C299.733 62.4609 291.829 70.3323 282.097 70.3323H228.816V69.1754C237.907 69.1754 245.291 61.8446 245.291 52.7706V4.34277ZM235.126 69.1754H282.097C291.187 69.1754 298.572 61.822 298.572 52.7706V5.49967H246.453V52.7706C246.453 60.2659 241.746 66.6501 235.126 69.1754Z" fill="#66B0F0"/>
<path d="M274.545 0.293945H270.246V10.4978H274.545V0.293945Z" fill="#FFCF2D"/>
<path d="M283.654 23.1086C283.05 23.1086 282.446 22.8773 281.958 22.4376L280.169 20.8643C279.611 20.3784 278.867 20.3784 278.31 20.8643L276.614 22.3682C275.614 23.2475 274.22 23.2475 273.198 22.3682L271.641 21.0031C271.083 20.5172 270.34 20.5172 269.782 21.0031L268.341 22.2757C267.342 23.1549 265.948 23.1549 264.926 22.2757L263.741 21.2345C263.183 20.7486 262.439 20.7486 261.882 21.2345L260.604 22.3682C259.605 23.2475 258.21 23.2475 257.188 22.3682L256.003 21.327C255.445 20.8411 254.702 20.8411 254.144 21.327C253.912 21.5353 253.54 21.5121 253.331 21.2807C253.122 21.0494 253.145 20.6791 253.377 20.4709C254.376 19.5917 255.771 19.5917 256.793 20.4709L257.978 21.5121C258.536 21.998 259.279 21.998 259.837 21.5121L261.115 20.3784C262.114 19.4991 263.508 19.4991 264.531 20.3784L265.716 21.4196C266.273 21.9055 267.017 21.9055 267.575 21.4196L269.015 20.147C270.014 19.2677 271.409 19.2677 272.431 20.147L273.988 21.5121C274.546 21.998 275.289 21.998 275.847 21.5121L277.543 20.0081C278.542 19.1289 279.936 19.1289 280.959 20.0081L282.748 21.5815C283.306 22.0674 284.049 22.0674 284.607 21.5815L286.466 19.9387C287.465 19.0595 288.859 19.0595 289.881 19.9387C290.114 20.147 290.137 20.5172 289.928 20.7486C289.719 20.9799 289.347 21.0031 289.115 20.7948C288.557 20.3089 287.813 20.3089 287.256 20.7948L285.397 22.4376C284.839 22.8773 284.258 23.1086 283.654 23.1086Z" fill="#66B0F0"/>
<path d="M283.654 32.6174C283.05 32.6174 282.446 32.386 281.958 31.9464L280.169 30.373C279.611 29.8871 278.867 29.8871 278.31 30.373L276.614 31.877C275.614 32.7562 274.22 32.7562 273.198 31.877L271.641 30.5119C271.083 30.026 270.34 30.026 269.782 30.5119L268.341 31.7844C267.342 32.6637 265.948 32.6637 264.926 31.7844L263.741 30.7432C263.183 30.2573 262.439 30.2573 261.882 30.7432L260.604 31.877C259.605 32.7562 258.21 32.7562 257.188 31.877L256.003 30.8358C255.445 30.3499 254.702 30.3499 254.144 30.8358C253.912 31.044 253.54 31.0209 253.331 30.7895C253.122 30.5581 253.145 30.1879 253.377 29.9797C254.376 29.1004 255.771 29.1004 256.793 29.9797L257.978 31.0209C258.536 31.5068 259.279 31.5068 259.837 31.0209L261.115 29.8871C262.114 29.0079 263.508 29.0079 264.531 29.8871L265.716 30.9283C266.273 31.4142 267.017 31.4142 267.575 30.9283L269.015 29.6558C270.014 28.7765 271.409 28.7765 272.431 29.6558L273.988 31.0209C274.546 31.5068 275.289 31.5068 275.847 31.0209L277.543 29.5169C278.542 28.6377 279.936 28.6377 280.959 29.5169L282.748 31.0903C283.306 31.5762 284.049 31.5762 284.607 31.0903L286.466 29.4475C287.465 28.5683 288.859 28.5683 289.881 29.4475C290.114 29.6558 290.137 30.026 289.928 30.2573C289.719 30.4887 289.347 30.5119 289.115 30.3036C288.557 29.8177 287.813 29.8177 287.256 30.3036L285.397 31.9464C284.839 32.4091 284.258 32.6174 283.654 32.6174Z" fill="#66B0F0"/>
<path d="M283.654 42.1272C283.05 42.1272 282.446 41.8958 281.958 41.4562L280.169 39.8828C279.611 39.3969 278.867 39.3969 278.31 39.8828L276.614 41.3868C275.614 42.266 274.22 42.266 273.198 41.3868L271.641 40.0216C271.083 39.5357 270.34 39.5357 269.782 40.0216L268.341 41.2942C267.342 42.1734 265.948 42.1734 264.926 41.2942L263.741 40.253C263.183 39.7671 262.439 39.7671 261.882 40.253L260.604 41.3868C259.605 42.266 258.21 42.266 257.188 41.3868L256.003 40.3456C255.445 39.8597 254.702 39.8597 254.144 40.3456C253.912 40.5538 253.54 40.5307 253.331 40.2993C253.122 40.0679 253.145 39.6977 253.377 39.4895C254.376 38.6102 255.771 38.6102 256.793 39.4895L257.978 40.5307C258.536 41.0166 259.279 41.0166 259.837 40.5307L261.115 39.3969C262.114 38.5177 263.508 38.5177 264.531 39.3969L265.716 40.4381C266.273 40.924 267.017 40.924 267.575 40.4381L269.015 39.1655C270.014 38.2863 271.409 38.2863 272.431 39.1655L273.988 40.5307C274.546 41.0166 275.289 41.0166 275.847 40.5307L277.543 39.0267C278.542 38.1475 279.936 38.1475 280.959 39.0267L282.748 40.6001C283.306 41.086 284.049 41.086 284.607 40.6001L286.466 38.9573C287.465 38.078 288.859 38.078 289.881 38.9573C290.114 39.1655 290.137 39.5357 289.928 39.7671C289.719 39.9985 289.347 40.0216 289.115 39.8134C288.557 39.3275 287.813 39.3275 287.256 39.8134L285.397 41.4562C284.839 41.9189 284.258 42.1272 283.654 42.1272Z" fill="#66B0F0"/>
<path d="M283.654 51.6594C283.05 51.6594 282.446 51.428 281.958 50.9884L280.169 49.415C279.611 48.9291 278.867 48.9291 278.31 49.415L276.614 50.919C275.614 51.7982 274.22 51.7982 273.198 50.919L271.641 49.5539C271.083 49.068 270.34 49.068 269.782 49.5539L268.341 50.8264C267.342 51.7057 265.948 51.7057 264.926 50.8264L263.741 49.7852C263.183 49.2993 262.439 49.2993 261.882 49.7852L260.604 50.919C259.605 51.7982 258.21 51.7982 257.188 50.919L256.003 49.8778C255.445 49.3919 254.702 49.3919 254.144 49.8778C253.912 50.086 253.54 50.0629 253.331 49.8315C253.122 49.6001 253.145 49.2299 253.377 49.0217C254.376 48.1425 255.771 48.1425 256.793 49.0217L257.978 50.0629C258.536 50.5488 259.279 50.5488 259.837 50.0629L261.115 48.9291C262.114 48.0499 263.508 48.0499 264.531 48.9291L265.716 49.9703C266.273 50.4562 267.017 50.4562 267.575 49.9703L269.015 48.6978C270.014 47.8185 271.409 47.8185 272.431 48.6978L273.988 50.0629C274.546 50.5488 275.289 50.5488 275.847 50.0629L277.543 48.5589C278.542 47.6797 279.936 47.6797 280.959 48.5589L282.748 50.1323C283.306 50.6182 284.049 50.6182 284.607 50.1323L286.466 48.4895C287.465 47.6103 288.859 47.6103 289.881 48.4895C290.114 48.6978 290.137 49.068 289.928 49.2993C289.719 49.5307 289.347 49.5539 289.115 49.3456C288.557 48.8597 287.813 48.8597 287.256 49.3456L285.397 50.9884C284.839 51.428 284.258 51.6594 283.654 51.6594Z" fill="#66B0F0"/>
<path d="M354.011 4.91992H316.74V42.0333H354.011V4.91992Z" fill="#FFCF2D"/>
<path d="M324.931 3.33727L322.232 0.00488281L312.391 7.94256L315.09 11.2749L324.931 3.33727Z" fill="#FE5244"/>
<path d="M355.945 11.2562L358.647 7.92676L348.798 -2.5395e-05L346.095 3.32937L355.945 11.2562Z" fill="#FE5244"/>
<path d="M346.135 13.7139H323.526V15.1022H346.135V13.7139Z" fill="white"/>
<path d="M346.135 19.7061H323.526V21.0943H346.135V19.7061Z" fill="white"/>
<path d="M346.135 25.7217H323.526V27.1099H346.135V25.7217Z" fill="white"/>
<path d="M346.135 31.7148H323.526V33.1031H346.135V31.7148Z" fill="white"/>
<g filter="url(#filter0_d_2435_8152)">
<path d="M382.457 404.178C381.917 404.019 381.618 403.939 381.618 403.939L375.085 425.243L350.494 418.818C350.295 418.639 350.195 418.54 350.195 418.54C350.195 418.54 250.612 340.822 245.378 303.524C240.164 266.227 281.875 230.839 281.875 230.839C281.875 230.839 370.83 398.27 381.837 403.74C382.057 403.86 382.277 403.999 382.457 404.178Z" fill="#E57281"/>
<path d="M302.931 270.006C299.814 286.616 288.867 320.253 277.541 352.797C260.76 334.794 247.216 316.633 245.378 303.504C242.062 279.872 257.624 256.977 269.45 243.41C273.785 239.949 278.459 236.766 283.513 233.922C286.61 239.71 293.781 253.118 302.931 270.006Z" fill="#9A3B82"/>
<path d="M438.352 418.52L401.775 441.893L391.167 440.302L381.399 446.468L384.555 452.913L368.474 463.197C347.159 443.882 350.175 418.759 350.175 418.759L375.066 425.263L381.598 403.959C381.598 403.959 403.952 410.464 420.453 409.907C436.993 409.35 438.352 418.52 438.352 418.52Z" fill="white"/>
<path fill-rule="evenodd" clip-rule="evenodd" d="M381.198 403.222L381.766 403.387L381.598 403.96C381.766 403.387 381.766 403.387 381.766 403.387L381.781 403.391L381.829 403.405C381.871 403.417 381.934 403.435 382.017 403.459C382.183 403.506 382.43 403.575 382.75 403.663C383.39 403.839 384.324 404.09 385.497 404.389C387.843 404.989 391.143 405.782 394.957 406.558C402.595 408.112 412.253 409.587 420.432 409.311C428.817 409.029 433.46 411.212 436.012 413.568C437.282 414.741 438.013 415.938 438.427 416.851C438.633 417.307 438.761 417.693 438.838 417.969C438.876 418.107 438.902 418.217 438.919 418.297C438.927 418.336 438.933 418.368 438.937 418.391C438.939 418.402 438.941 418.412 438.942 418.419L438.943 418.428L438.944 418.431L438.944 418.433C438.944 418.433 438.944 418.434 438.351 418.521L438.944 418.434L439 418.815L401.908 442.517L391.299 440.926L382.172 446.687L385.327 453.129L368.41 463.948L368.07 463.64C357.3 453.881 352.676 442.65 350.745 433.863C349.781 429.471 349.488 425.687 349.437 422.998C349.412 421.653 349.447 420.582 349.488 419.843C349.509 419.474 349.532 419.188 349.549 418.993C349.558 418.896 349.565 418.821 349.571 418.77C349.573 418.744 349.576 418.725 349.577 418.711L349.579 418.695L349.579 418.691L349.58 418.689C349.58 418.689 349.58 418.689 350.175 418.759L349.58 418.689L349.661 418.008L374.661 424.541L381.198 403.222ZM350.71 419.516C350.702 419.633 350.693 419.765 350.685 419.91C350.645 420.621 350.611 421.663 350.636 422.976C350.685 425.601 350.971 429.305 351.916 433.608C353.786 442.119 358.234 452.964 368.538 462.448L383.782 452.699L380.624 446.251L391.035 439.679L401.64 441.27L437.671 418.246C437.608 418.025 437.503 417.713 437.334 417.342C436.977 416.553 436.334 415.493 435.197 414.443C432.934 412.353 428.628 410.229 420.472 410.504C412.15 410.785 402.381 409.286 394.717 407.727C390.88 406.947 387.56 406.149 385.2 405.546C384.019 405.244 383.078 404.991 382.431 404.814C382.268 404.769 382.124 404.729 381.999 404.694L375.471 425.987L350.71 419.516Z" fill="#FE5244"/>
<path fill-rule="evenodd" clip-rule="evenodd" d="M397.3 406.022C397.25 405.579 397.175 404.954 397.074 404.21C396.868 402.699 396.553 400.689 396.115 398.706C395.679 396.735 395.113 394.747 394.393 393.304C394.034 392.586 393.614 391.953 393.112 391.531C392.591 391.093 391.949 390.861 391.234 391.049L391.232 391.05L391.231 391.05C390.516 391.242 390.053 391.779 389.779 392.426C389.508 393.063 389.393 393.858 389.382 394.713C389.359 396.429 389.755 398.556 390.402 400.568C391.048 402.579 391.965 404.536 393.027 405.893C393.556 406.57 394.15 407.133 394.797 407.462C395.462 407.801 396.196 407.894 396.928 407.595C398.165 407.09 399.329 405.933 400.36 404.588C401.405 403.225 402.371 401.592 403.192 400.032C404.014 398.468 404.698 396.963 405.176 395.85C405.416 395.293 405.604 394.833 405.732 394.512C405.797 394.351 405.846 394.225 405.88 394.139C405.896 394.096 405.909 394.063 405.918 394.04L405.928 394.014L405.931 394.005L405.931 394.005C405.931 394.005 405.931 394.005 405.37 393.795C404.809 393.584 404.809 393.584 404.809 393.584L404.809 393.585L404.809 393.586L404.807 393.592L404.798 393.615C404.79 393.636 404.778 393.667 404.762 393.709C404.73 393.791 404.682 393.914 404.619 394.07C404.494 394.384 404.309 394.834 404.074 395.381C403.604 396.475 402.934 397.95 402.13 399.478C401.325 401.008 400.395 402.576 399.408 403.864C398.698 404.79 397.986 405.533 397.3 406.022ZM396.155 406.574C395.9 406.603 395.633 406.547 395.342 406.399C394.91 406.18 394.445 405.764 393.972 405.159C393.029 403.953 392.165 402.14 391.543 400.204C390.922 398.271 390.56 396.276 390.58 394.728C390.59 393.951 390.696 393.328 390.882 392.891C391.064 392.463 391.293 392.27 391.541 392.203C391.789 392.138 392.038 392.19 392.339 392.443C392.659 392.712 392.991 393.178 393.319 393.835C393.972 395.143 394.513 397.014 394.944 398.963C395.373 400.902 395.683 402.877 395.886 404.37C395.988 405.116 396.062 405.74 396.111 406.177C396.129 406.334 396.143 406.468 396.155 406.574Z" fill="#FE5244"/>
<path fill-rule="evenodd" clip-rule="evenodd" d="M437.15 415.843L402.34 437.485L390.787 435.634L378.662 442.85L353.98 442.47L353.999 441.276L378.34 441.652L390.547 434.387L402.086 436.236L436.515 414.831L437.15 415.843Z" fill="#FE5244"/>
<path fill-rule="evenodd" clip-rule="evenodd" d="M388.843 416.327L391.12 405.765L392.292 406.015L390.015 416.578L388.843 416.327Z" fill="#FE5244"/>
<path fill-rule="evenodd" clip-rule="evenodd" d="M393.797 417.521L396.074 406.958L397.246 407.209L394.969 417.771L393.797 417.521Z" fill="#FE5244"/>
<path fill-rule="evenodd" clip-rule="evenodd" d="M398.972 418.376L401.249 407.813L402.421 408.064L400.144 418.627L398.972 418.376Z" fill="#FE5244"/>
<path d="M273.426 222.704C273.426 222.704 288.069 229.507 288.069 254.452C288.069 278.561 232.175 426.199 232.175 426.199L214.975 440.721L197.516 421.684C206.046 413.608 181.554 267.6 273.426 222.704Z" fill="#E57281"/>
<path d="M271.868 469.007L228.4 469.047L220.329 462.005L208.763 461.945L207.924 469.067L190.884 469.087C181.614 440.363 197.596 421.664 197.596 421.664L214.935 440.681L232.255 426.18C232.255 426.18 247.277 443.724 261.461 452.119C275.684 460.533 271.868 469.007 271.868 469.007Z" fill="white"/>
<path fill-rule="evenodd" clip-rule="evenodd" d="M197.581 420.761L214.991 439.855L232.325 425.342L232.711 425.793L232.255 426.18C232.711 425.793 232.711 425.793 232.711 425.793L232.721 425.805L232.753 425.842C232.781 425.875 232.824 425.924 232.88 425.988C232.992 426.118 233.16 426.309 233.378 426.556C233.814 427.05 234.454 427.765 235.266 428.65C236.891 430.42 239.204 432.868 241.96 435.577C247.478 441.003 254.738 447.447 261.767 451.606C268.977 455.872 271.705 460.209 272.578 463.569C273.013 465.241 272.98 466.645 272.835 467.638C272.762 468.134 272.662 468.528 272.577 468.802C272.535 468.939 272.496 469.047 272.468 469.122C272.46 469.142 272.453 469.159 272.447 469.174C272.442 469.189 272.436 469.201 272.432 469.211C272.428 469.222 272.424 469.231 272.421 469.238L272.417 469.246L272.415 469.25C272.415 469.251 272.415 469.252 271.868 469.007L272.415 469.252L272.256 469.604L228.174 469.644L220.102 462.601L209.295 462.545L208.456 469.663L190.447 469.684L190.313 469.269C185.633 454.767 187.325 442.778 190.196 434.411C191.631 430.231 193.36 426.956 194.732 424.723C195.418 423.607 196.016 422.75 196.444 422.171C196.658 421.881 196.83 421.66 196.949 421.51C197.008 421.436 197.055 421.379 197.087 421.34C197.103 421.32 197.116 421.305 197.124 421.295L197.135 421.283L197.137 421.279L197.138 421.278C197.139 421.278 197.139 421.278 197.595 421.664L197.139 421.278L197.581 420.761ZM197.627 422.587C197.561 422.674 197.489 422.77 197.41 422.877C197 423.433 196.421 424.261 195.754 425.346C194.42 427.517 192.732 430.713 191.331 434.797C188.556 442.881 186.897 454.455 191.322 468.49L207.39 468.471L208.229 461.346L220.555 461.41L228.624 468.45L271.444 468.411C271.51 468.19 271.59 467.87 271.649 467.466C271.775 466.607 271.807 465.366 271.418 463.868C270.643 460.887 268.167 456.781 261.154 452.632C253.999 448.397 246.656 441.871 241.118 436.426C238.345 433.7 236.016 431.237 234.381 429.455C233.563 428.564 232.919 427.843 232.478 427.344C232.369 427.221 232.272 427.111 232.188 427.015L214.879 441.508L197.627 422.587Z" fill="#FE5244"/>
<path fill-rule="evenodd" clip-rule="evenodd" d="M252.27 420.056C253.16 419.934 254.018 420.153 254.762 420.796C255.5 421.434 255.84 422.23 255.837 423.104C255.835 423.949 255.515 424.825 255.031 425.679C254.065 427.385 252.326 429.202 250.486 430.844C248.635 432.495 246.636 434.01 245.103 435.11C244.395 435.618 243.785 436.039 243.332 436.345C243.531 436.364 243.773 436.373 244.061 436.368C244.781 436.357 245.688 436.265 246.725 436.111C248.797 435.802 251.325 435.255 253.785 434.658C256.242 434.062 258.617 433.421 260.38 432.928C261.261 432.682 261.988 432.473 262.494 432.326C262.747 432.252 262.946 432.194 263.08 432.154C263.147 432.134 263.199 432.119 263.233 432.108L263.285 432.093C263.285 432.093 263.285 432.093 263.458 432.664C263.63 433.236 263.63 433.236 263.63 433.236L263.577 433.252C263.557 433.258 263.532 433.265 263.502 433.274C263.478 433.281 263.451 433.289 263.421 433.298C263.285 433.338 263.085 433.397 262.83 433.471C262.32 433.62 261.589 433.83 260.704 434.077C258.933 434.572 256.543 435.218 254.068 435.818C251.596 436.417 249.027 436.975 246.902 437.291C245.841 437.449 244.875 437.549 244.08 437.562C243.32 437.573 242.598 437.51 242.114 437.246C241.455 436.885 241.333 436.103 241.356 435.447C241.381 434.736 241.584 433.859 241.9 432.913C242.537 431.01 243.685 428.683 245.065 426.543C246.44 424.411 248.08 422.412 249.722 421.209C250.544 420.607 251.407 420.174 252.27 420.056ZM242.557 435.427C243.009 435.122 243.65 434.682 244.402 434.142C245.917 433.055 247.879 431.568 249.686 429.955C251.504 428.332 253.121 426.622 253.987 425.092C254.421 424.328 254.637 423.659 254.639 423.101C254.64 422.573 254.451 422.108 253.976 421.697C253.505 421.29 252.997 421.161 252.433 421.238C251.844 421.319 251.168 421.631 250.433 422.17C248.961 423.248 247.415 425.108 246.073 427.188C244.736 429.261 243.637 431.499 243.038 433.29C242.748 434.156 242.586 434.886 242.557 435.427Z" fill="#FE5244"/>
<path fill-rule="evenodd" clip-rule="evenodd" d="M188.266 444.189L188.905 443.18L209.155 455.898H223.363L232.332 463.397H272.207V464.591H231.896L222.926 457.092H208.808L188.266 444.189Z" fill="#FE5244"/>
<path fill-rule="evenodd" clip-rule="evenodd" d="M230.273 439.483L237.944 431.845L238.792 432.689L231.121 440.327L230.273 439.483Z" fill="#FE5244"/>
<path fill-rule="evenodd" clip-rule="evenodd" d="M233.788 443.163L241.459 435.524L242.307 436.368L234.636 444.007L233.788 443.163Z" fill="#FE5244"/>
<path fill-rule="evenodd" clip-rule="evenodd" d="M237.665 446.664L245.336 439.025L246.184 439.869L238.513 447.508L237.665 446.664Z" fill="#FE5244"/>
<path d="M273.425 222.703C238.886 239.572 220.787 270.762 211.218 303.524H106.402C79.5731 303.524 59.5766 278.878 65.2299 252.76L72.9209 217.193H255.167C261.919 217.193 268.191 219.222 273.425 222.703Z" fill="#FE5244"/>
<path d="M195.596 256.798L233.331 256.719L227.738 265.849L195.596 256.798Z" fill="#E57281"/>
<path fill-rule="evenodd" clip-rule="evenodd" d="M112.676 216.609C113 216.677 113.208 216.993 113.14 217.315L111.682 224.277C111.682 224.277 111.682 224.277 111.682 224.277C108.244 240.716 120.825 256.142 137.684 256.142H233.005C243.061 242.273 256.185 230.361 273.36 221.969C273.657 221.824 274.016 221.946 274.162 222.242C274.308 222.538 274.185 222.895 273.888 223.04C256.806 231.387 243.775 243.254 233.798 257.087L233.619 257.336H137.684C120.064 257.336 106.915 241.213 110.509 224.034L111.967 217.072C112.035 216.749 112.352 216.542 112.676 216.609Z" fill="white"/>
<path fill-rule="evenodd" clip-rule="evenodd" d="M195.021 256.614C195.113 256.297 195.445 256.114 195.763 256.205L228.252 265.489L227.856 266.154C220.875 277.857 215.739 290.639 211.934 303.671C211.842 303.988 211.51 304.17 211.192 304.078C210.874 303.986 210.691 303.655 210.784 303.338C214.538 290.478 219.588 277.837 226.431 266.21L195.432 257.352C195.114 257.261 194.93 256.931 195.021 256.614Z" fill="white"/>
<path d="M48.4293 121.653L67.6267 196.646H31.8088C10.9533 196.646 -2.47096 174.586 7.19769 156.186L34.7054 103.81C42.4962 88.9908 57.8981 79.7012 74.6984 79.7012H81.1908C59.1367 79.6813 42.9757 100.369 48.4293 121.653Z" fill="#3FB1B5"/>
<path fill-rule="evenodd" clip-rule="evenodd" d="M48.0853 121.073C48.4065 120.994 48.7315 121.189 48.811 121.509L67.609 197.099C67.6885 197.419 67.4926 197.742 67.1713 197.821C66.85 197.901 66.5251 197.706 66.4455 197.386L47.6476 121.796C47.568 121.476 47.764 121.153 48.0853 121.073Z" fill="white"/>
<path d="M269.489 102.198C280.776 102.198 290.165 100.706 292.442 98.6176L257.424 174.207C251.091 187.893 237.327 196.645 222.205 196.645C217.77 196.645 213.415 195.89 209.3 194.437C205.185 192.985 201.31 190.857 197.854 188.072L175.78 170.328C175.78 170.328 173.582 183.198 157.901 186.481V217.154H72.9005L48.4292 121.633C42.9757 100.348 59.1367 79.6406 81.1907 79.6406H140.701C145.955 79.6406 151.129 80.2971 156.123 81.5701C169.787 85.0314 182.052 93.028 190.722 104.486L219.808 142.917L245.937 97.444C245.937 97.4838 245.917 97.5434 245.917 97.5832C245.937 100.229 256.505 102.198 269.489 102.198Z" fill="#3FB1B5"/>
<path fill-rule="evenodd" clip-rule="evenodd" d="M158.869 153.204C159.11 152.978 159.489 152.99 159.716 153.23L176.416 170.934C176.643 171.174 176.631 171.552 176.39 171.778C176.148 172.003 175.769 171.991 175.543 171.751L158.842 154.047C158.616 153.807 158.627 153.429 158.869 153.204Z" fill="white"/>
<path d="M292.963 97.5032L292.444 98.6172C290.166 100.726 280.777 102.198 269.491 102.198C256.506 102.198 245.938 100.228 245.938 97.6226C245.938 97.5828 245.938 97.5231 245.958 97.4833C246.318 94.9371 256.746 92.749 269.511 92.749C282.256 92.749 292.604 94.9371 292.963 97.5032C292.963 97.4833 292.963 97.4833 292.963 97.5032Z" fill="#FE5244"/>
<path d="M303.429 59.3108C303.429 60.4447 303.15 61.5586 302.63 62.5333C302.111 63.5081 301.352 64.3634 300.413 65.0198L299.953 65.3381L296.378 84.335C295.798 87.4182 293.96 90.1434 291.304 91.8343L286.409 94.9374L282.534 97.404L280.736 101.681C277.4 102.019 273.584 102.218 269.509 102.218C265.394 102.218 261.519 102.019 258.143 101.661V72.2009C258.143 70.9278 258.422 69.6746 258.962 68.5208L265.474 54.5566C265.474 54.5566 272.586 56.3071 269.309 65C266.333 72.8971 273.125 70.8681 276.94 69.4557C280.356 68.1827 295.279 60.6237 301.112 57.8587C302.191 57.3415 303.429 58.1372 303.429 59.3108Z" fill="#E57281"/>
<path fill-rule="evenodd" clip-rule="evenodd" d="M297.289 76.6258C297.56 76.6763 297.738 76.9361 297.688 77.206C297.083 80.4249 295.164 83.2485 292.392 85.013L283.622 90.5831C283.389 90.7307 283.08 90.6628 282.932 90.4312C282.784 90.1996 282.852 89.8922 283.084 89.7445L291.854 84.175C294.395 82.5578 296.152 79.9708 296.706 77.0231C296.757 76.7532 297.017 76.5752 297.289 76.6258Z" fill="#9A3B82"/>
<path fill-rule="evenodd" clip-rule="evenodd" d="M298.727 68.5691C298.998 68.6196 299.177 68.8794 299.126 69.1494C298.521 72.3682 296.603 75.1919 293.83 76.9564L285.06 82.5264C284.827 82.6741 284.519 82.6061 284.37 82.3745C284.222 82.143 284.29 81.8355 284.523 81.6878L293.292 76.1183C293.292 76.1183 293.292 76.1182 293.292 76.1181C293.292 76.1181 293.292 76.1181 293.292 76.1181C295.833 74.501 297.59 71.914 298.144 68.9665C298.195 68.6965 298.456 68.5186 298.727 68.5691Z" fill="#9A3B82"/>
<path fill-rule="evenodd" clip-rule="evenodd" d="M299.735 65.2905C299.882 65.5224 299.813 65.8297 299.581 65.9768L285.477 74.8885C285.244 75.0357 284.936 74.967 284.788 74.7351C284.64 74.5032 284.709 74.1959 284.942 74.0487L299.045 65.137C299.278 64.9899 299.587 65.0586 299.735 65.2905Z" fill="#9A3B82"/>
<path d="M287.169 94.4399L286.39 94.9372L282.514 97.4038L280.716 101.681C277.38 102.019 273.565 102.218 269.49 102.218C265.374 102.218 261.499 102.019 258.123 101.661V93.3856C261.499 92.9878 265.374 92.769 269.49 92.769C276.541 92.7491 282.854 93.4055 287.169 94.4399Z" fill="#9A3B82"/>
<path d="M154.266 81.1132C151.37 84.9922 140.583 94.1226 104.265 94.1226C57.5401 94.1226 87.445 79.7208 87.445 79.7208L107.262 46.7598L128.517 59.7492V70.1925C128.517 75.4639 132.812 79.7208 138.085 79.7208H139.464C144.418 79.7009 149.532 79.9197 154.266 81.1132Z" fill="#E57281"/>
<path d="M128.498 59.7287V62.3943L87.4258 79.7003L107.243 46.7393L128.498 59.7287Z" fill="#9A3B82"/>
<path d="M129.613 61.0209H134.128C138.283 61.0209 141.659 57.6591 141.659 53.5216V28.4775H114.711V46.1814C114.711 54.3769 121.383 61.0209 129.613 61.0209Z" fill="#E57281"/>
<path fill-rule="evenodd" clip-rule="evenodd" d="M137.456 49.8301L137.456 49.8297L137.456 49.829L137.455 49.8283C137.455 49.828 137.455 49.8281 137.455 49.8284C137.455 49.8284 137.455 49.8284 137.455 49.8284M137.455 49.8284C137.455 49.8285 137.455 49.8286 137.456 49.8288C137.456 49.83 137.458 49.8331 137.461 49.8378C137.467 49.8471 137.477 49.8631 137.492 49.8848C137.522 49.9282 137.57 49.9941 137.637 50.0751C137.771 50.2373 137.979 50.4581 138.27 50.6799C138.846 51.12 139.756 51.5719 141.08 51.5719C141.356 51.5719 141.579 51.7946 141.579 52.0692C141.579 52.3439 141.356 52.5665 141.08 52.5665C139.507 52.5665 138.389 52.0238 137.662 51.4694C137.301 51.1939 137.039 50.9173 136.865 50.7065C136.778 50.601 136.713 50.5115 136.668 50.4461C136.645 50.4134 136.628 50.3867 136.615 50.3669C136.609 50.357 136.604 50.3489 136.6 50.3426L136.596 50.3346L136.594 50.3317L136.593 50.3305L136.593 50.33C136.593 50.3297 136.592 50.3295 137.025 50.08" fill="#73325A"/>
<path d="M138.462 44.0534C138.991 44.0534 139.421 43.2251 139.421 42.2034C139.421 41.1818 138.991 40.3535 138.462 40.3535C137.932 40.3535 137.503 41.1818 137.503 42.2034C137.503 43.2251 137.932 44.0534 138.462 44.0534Z" fill="#73325A"/>
<path d="M119.846 31.0839C119.846 31.0839 142.08 44.4513 149.312 32.8145C155.664 22.6099 127.517 17.3584 117.689 17.3186C107.001 17.2788 92.838 21.9932 93.0777 37.6482C93.2775 50.5383 93.8168 69.3959 86.1458 66.1137C58.8579 54.457 34.6065 66.6309 34.5265 89.825C34.4466 113.019 61.4749 115.187 62.1541 109.2C62.8532 103.232 45.3738 104.605 47.731 120.101C50.0683 135.597 60.496 154.971 84.308 154.971C113.074 154.991 131.393 117.276 113.594 113.437C99.9496 110.493 127.497 136.71 135.668 109.458C144.457 80.1177 112.695 70.5099 111.916 52.7861C111.136 35.0623 119.846 31.0839 119.846 31.0839Z" fill="#FFCF2D"/>
<path fill-rule="evenodd" clip-rule="evenodd" d="M101.014 21.1809C105.968 17.981 112.287 16.8014 117.691 16.8215C122.659 16.8416 132.208 18.1732 139.733 20.7854C143.486 22.0883 146.807 23.7331 148.79 25.7458C149.787 26.7586 150.471 27.8902 150.673 29.1417C150.877 30.4012 150.582 31.719 149.737 33.0764C147.832 36.141 144.935 37.5497 141.719 37.9471C138.521 38.3423 134.988 37.7428 131.727 36.7904C128.459 35.8362 125.427 34.5163 123.214 33.4376C122.107 32.8977 121.203 32.4171 120.574 32.0709C120.26 31.8978 120.015 31.7582 119.848 31.6616C119.843 31.6591 119.839 31.6567 119.835 31.6544C119.804 31.6722 119.77 31.6922 119.734 31.7145C119.515 31.8471 119.196 32.0589 118.813 32.3688C118.046 32.9883 117.018 34.0009 116.009 35.5584C113.993 38.6685 112.029 43.9885 112.415 52.7646C112.603 57.045 114.662 60.8695 117.589 64.691C119.051 66.6 120.719 68.4952 122.464 70.4389C122.761 70.7698 123.06 71.1021 123.36 71.4361C124.822 73.0598 126.319 74.7227 127.764 76.4476C131.249 80.6082 134.466 85.1707 136.249 90.5623C138.036 95.9657 138.372 102.172 136.147 109.601C134.076 116.507 130.743 120.129 127.041 121.624C125.085 122.414 123.059 122.595 121.115 122.379C121.198 126.426 119.644 131.242 116.842 135.907C110.829 145.917 98.9148 155.479 84.3081 155.469C72.2476 155.469 63.5528 150.555 57.5888 143.672C51.6369 136.803 48.4164 127.991 47.2375 120.175C46.6652 116.412 47.2303 113.421 48.4518 111.138C48.2586 111.068 48.0653 110.994 47.8722 110.918C40.8857 108.164 33.9867 101.662 34.0275 89.8235C34.0681 78.0323 40.2645 69.0179 49.9193 64.4513C59.5588 59.8921 72.5964 59.7847 86.3431 65.6569L86.3434 65.657C87.2226 66.0332 87.9273 66.0696 88.5039 65.8878C89.0845 65.7047 89.6093 65.2772 90.0801 64.5848C91.0356 63.1793 91.6706 60.8273 92.0687 57.8795C92.8145 52.359 92.6972 45.0495 92.5973 38.8233C92.591 38.4297 92.5847 38.0404 92.5788 37.6561C92.4561 29.6475 96.0317 24.3991 101.014 21.1809ZM49.41 111.465C48.2522 113.549 47.6677 116.362 48.2252 120.026L48.2253 120.027C49.3836 127.707 52.5456 136.33 58.345 143.022C64.1321 149.701 72.5571 154.474 84.3084 154.474H84.3088C98.4682 154.484 110.097 145.198 115.985 135.396C118.771 130.757 120.237 126.058 120.111 122.232C118.751 121.984 117.445 121.554 116.246 121.017C114.653 120.303 113.234 119.394 112.107 118.451C110.987 117.514 110.127 116.519 109.689 115.624C109.47 115.176 109.338 114.716 109.366 114.28C109.395 113.822 109.602 113.417 110 113.134C110.377 112.866 110.885 112.736 111.482 112.71C112.085 112.684 112.822 112.762 113.7 112.951C116.02 113.452 117.786 114.514 119.013 116.01C120.21 117.471 120.867 119.312 121.058 121.371C122.915 121.601 124.833 121.442 126.666 120.702C130 119.356 133.175 116.036 135.189 109.316C137.359 102.075 137.021 96.0775 135.3 90.8734C133.575 85.6577 130.451 81.2091 126.997 77.0847C125.564 75.3745 124.081 73.7272 122.62 72.1036C122.318 71.7687 122.018 71.4348 121.719 71.1016C119.974 69.157 118.283 67.2367 116.795 65.2941C113.822 61.4124 111.618 57.3895 111.417 52.8081C111.024 43.8603 113.025 38.3292 115.169 35.0192C116.24 33.3666 117.341 32.2769 118.183 31.5965C118.604 31.2565 118.96 31.0191 119.214 30.8649C119.342 30.7877 119.444 30.7314 119.516 30.6934C119.552 30.6744 119.58 30.66 119.601 30.6499C119.611 30.6449 119.62 30.6409 119.626 30.6379L119.634 30.6342L119.638 30.6325C119.638 30.6323 119.638 30.6321 119.847 31.0841L119.638 30.6321L119.879 30.5224L120.105 30.6584L120.098 30.6695C120.105 30.6584 120.105 30.6584 120.105 30.6584L120.105 30.6587L120.108 30.6603L120.119 30.667C120.129 30.673 120.145 30.6821 120.165 30.6942C120.206 30.7184 120.268 30.7545 120.349 30.8012C120.511 30.8947 120.75 31.031 121.058 31.2006C121.674 31.54 122.563 32.0128 123.653 32.5443C125.836 33.6083 128.813 34.903 132.008 35.836C135.209 36.7709 138.591 37.3314 141.596 36.9601C144.582 36.591 147.176 35.3068 148.887 32.553L148.888 32.5527C149.631 31.3591 149.846 30.2806 149.687 29.2996C149.527 28.3106 148.978 27.3575 148.076 26.4422C146.261 24.5989 143.122 23.0151 139.404 21.7246C131.987 19.1499 122.548 17.8358 117.687 17.8161M120.037 121.205C119.831 119.408 119.237 117.857 118.239 116.639C117.173 115.339 115.617 114.382 113.488 113.923C112.661 113.745 112.014 113.682 111.525 113.703C111.031 113.725 110.74 113.83 110.58 113.943C110.441 114.042 110.374 114.166 110.363 114.344C110.35 114.544 110.41 114.826 110.587 115.188C110.94 115.91 111.686 116.8 112.749 117.689C113.806 118.573 115.147 119.434 116.656 120.11C117.72 120.587 118.86 120.969 120.037 121.205ZM49.41 111.465C52.3735 112.407 55.275 112.699 57.5923 112.455C58.9487 112.312 60.1357 111.983 61.0213 111.467C61.9095 110.95 62.542 110.211 62.6506 109.257C62.7528 108.383 62.5205 107.618 62.028 107.008C61.5433 106.408 60.8316 105.987 60.0134 105.732C58.3815 105.224 56.2183 105.339 54.1412 106.138C52.2092 106.881 50.3197 108.228 48.9708 110.267C48.7273 110.181 48.4836 110.089 48.2398 109.993C41.5624 107.361 34.9872 101.183 35.0263 89.8269C35.0656 78.4241 41.035 69.7545 50.3478 65.3497C59.676 60.9377 72.408 60.7865 85.9491 66.5709C86.9877 67.0152 87.9441 67.1075 88.8055 66.836C89.6629 66.5656 90.3529 65.9577 90.9072 65.1423C92.0018 63.5323 92.6578 60.9797 93.0587 58.0121C93.8149 52.4139 93.6962 45.0336 93.5964 38.8316C93.5899 38.4295 93.5835 38.0322 93.5775 37.6409C93.4604 29.9944 96.8466 25.0582 101.558 22.0153C106.297 18.9542 112.404 17.7965 117.687 17.8161M49.9559 110.593C51.1665 108.868 52.8125 107.715 54.5011 107.066C56.4119 106.33 58.3401 106.253 59.7152 106.681C60.4006 106.895 60.9213 107.225 61.2496 107.631C61.5697 108.028 61.7307 108.525 61.6584 109.142L61.6582 109.144C61.5967 109.686 61.2361 110.19 60.5168 110.609C59.7946 111.03 58.7592 111.332 57.4874 111.466C55.3829 111.687 52.7151 111.437 49.9559 110.593Z" fill="white"/>
<path fill-rule="evenodd" clip-rule="evenodd" d="M134.19 42.3234H118.289V41.1299H134.19V42.3234Z" fill="#3FB1B5"/>
<path fill-rule="evenodd" clip-rule="evenodd" d="M139.085 37.1515C137.053 37.1515 135.169 39.32 135.169 42.3235C135.169 45.3269 137.053 47.4954 139.085 47.4954C141.117 47.4954 143 45.3269 143 42.3235C143 39.32 141.117 37.1515 139.085 37.1515ZM133.971 42.3235C133.971 38.955 136.13 35.958 139.085 35.958C142.04 35.958 144.199 38.955 144.199 42.3235C144.199 45.6919 142.04 48.6889 139.085 48.6889C136.13 48.6889 133.971 45.6919 133.971 42.3235Z" fill="#3FB1B5"/>
<path fill-rule="evenodd" clip-rule="evenodd" d="M114.433 13.9172C112.228 13.9172 110.457 15.6972 110.457 17.8757V34.6247H109.259V17.8757C109.259 15.0414 111.563 12.7236 114.433 12.7236H119.427C122.273 12.7236 124.601 15.0181 124.601 17.8757H123.402C123.402 15.6807 121.615 13.9172 119.427 13.9172H114.433Z" fill="#66B0F0"/>
<path d="M114.673 53.0649H105.064C102.607 53.0649 100.609 51.0757 100.609 48.629V39.0609C100.609 36.6142 102.607 34.625 105.064 34.625H114.673C117.13 34.625 119.128 36.6142 119.128 39.0609V48.629C119.108 51.0757 117.13 53.0649 114.673 53.0649Z" fill="white"/>
<path fill-rule="evenodd" clip-rule="evenodd" d="M105.064 35.2218C102.938 35.2218 101.208 36.9439 101.208 39.061V48.629C101.208 50.7462 102.938 52.4682 105.064 52.4682H114.673C116.793 52.4682 118.509 50.7508 118.528 48.6265V39.061C118.528 36.9439 116.799 35.2218 114.673 35.2218H105.064ZM100.01 39.061C100.01 36.2847 102.276 34.0283 105.064 34.0283H114.673C117.461 34.0283 119.727 36.2847 119.727 39.061V48.6315L119.727 48.6339C119.704 51.402 117.465 53.6617 114.673 53.6617H105.064C102.276 53.6617 100.01 51.4053 100.01 48.629V39.061Z" fill="#66B0F0"/>
<path d="M112.176 49.9022H107.481C105.464 49.9022 103.806 48.271 103.806 46.242V41.5674C103.806 39.5583 105.444 37.9072 107.481 37.9072H112.176C114.193 37.9072 115.852 39.5384 115.852 41.5674V46.242C115.852 48.271 114.213 49.9022 112.176 49.9022Z" fill="white"/>
<path fill-rule="evenodd" clip-rule="evenodd" d="M107.482 38.5041C105.778 38.5041 104.406 39.8858 104.406 41.5674V46.2421C104.406 47.9394 105.793 49.3054 107.482 49.3054H112.177C113.883 49.3054 115.253 47.9415 115.253 46.2421V41.5674C115.253 39.8701 113.865 38.5041 112.177 38.5041H107.482ZM103.207 41.5674C103.207 39.2309 105.111 37.3105 107.482 37.3105H112.177C114.523 37.3105 116.452 39.2068 116.452 41.5674V46.2421C116.452 48.6006 114.545 50.499 112.177 50.499H107.482C105.136 50.499 103.207 48.6027 103.207 46.2421V41.5674Z" fill="#66B0F0"/>
<path fill-rule="evenodd" clip-rule="evenodd" d="M105.204 49.0863L113.554 38.0264L114.512 38.7436L106.162 49.8035L105.204 49.0863Z" fill="#66B0F0"/>
<path fill-rule="evenodd" clip-rule="evenodd" d="M103.567 47.1946L110.799 37.6465L111.756 38.3651L104.524 47.9132L103.567 47.1946Z" fill="#66B0F0"/>
<path fill-rule="evenodd" clip-rule="evenodd" d="M107.94 49.5423L115.172 39.9941L116.129 40.7128L108.897 50.261L107.94 49.5423Z" fill="#66B0F0"/>
<path fill-rule="evenodd" clip-rule="evenodd" d="M110.839 49.5432L115.374 43.5557L116.331 44.2743L111.796 50.2618L110.839 49.5432Z" fill="#66B0F0"/>
<path fill-rule="evenodd" clip-rule="evenodd" d="M103.348 43.5942L107.862 37.6465L108.818 38.3662L104.304 44.3139L103.348 43.5942Z" fill="#66B0F0"/>
</g>
<path fill-rule="evenodd" clip-rule="evenodd" d="M102.147 325.803V314.843H103.346V325.803C103.346 331.424 98.7625 335.988 93.1177 335.988H68.4268V334.794H93.1177C98.1005 334.794 102.147 330.765 102.147 325.803Z" fill="#66B0F0"/>
<path fill-rule="evenodd" clip-rule="evenodd" d="M111.358 415.517V314.963H112.557V415.517H111.358Z" fill="#66B0F0"/>
<path fill-rule="evenodd" clip-rule="evenodd" d="M106.903 416.113C85.2206 416.113 67.849 430.395 67.849 447.762H66.6504C66.6504 429.521 84.797 414.92 106.903 414.92H116.851C138.957 414.92 157.104 429.521 157.104 447.762H155.905C155.905 430.395 138.534 416.113 116.851 416.113H106.903Z" fill="#66B0F0"/>
<path d="M208.022 316.494H62.9922C55.7208 316.494 49.8477 310.626 49.8477 303.405H211.458L208.022 316.494Z" fill="#FFCF2D"/>
<path d="M66.3705 469.085C72.2841 469.085 77.078 464.311 77.078 458.423C77.078 452.534 72.2841 447.761 66.3705 447.761C60.457 447.761 55.6631 452.534 55.6631 458.423C55.6631 464.311 60.457 469.085 66.3705 469.085Z" fill="#FFCF2D"/>
<path d="M60.9155 338.117H82.4103C84.1682 338.117 85.5865 336.705 85.5865 334.954V334.715C85.5865 332.965 84.1682 331.553 82.4103 331.553H60.9155C59.1576 331.553 57.7393 332.965 57.7393 334.715V334.954C57.7393 336.705 59.1576 338.117 60.9155 338.117Z" fill="#FFCF2D"/>
<path fill-rule="evenodd" clip-rule="evenodd" d="M16.044 211.286C13.3883 203.857 18.9108 196.048 26.8366 196.048H102.488C109.853 196.048 116.411 200.663 118.893 207.563L118.894 207.564L153.599 304.4H49.4272L16.044 211.286ZM17.1731 210.886C14.7952 204.232 19.7404 197.241 26.8366 197.241H102.488C109.345 197.241 115.453 201.538 117.765 207.966L151.898 303.206H50.272L17.1732 210.886C17.1732 210.886 17.1731 210.886 17.1731 210.886Z" fill="#FFCF2D"/>
<path fill-rule="evenodd" clip-rule="evenodd" d="M19.2461 199.608H95.836C102.962 199.608 109.3 204.064 111.702 210.746L111.703 210.746L145.249 304.4H54.9441V303.206H143.549L110.574 211.148C108.342 204.94 102.454 200.802 95.836 200.802H19.2461V199.608Z" fill="#FFCF2D"/>
<path d="M156.325 469.085C162.238 469.085 167.032 464.311 167.032 458.423C167.032 452.534 162.238 447.761 156.325 447.761C150.411 447.761 145.617 452.534 145.617 458.423C145.617 464.311 150.411 469.085 156.325 469.085Z" fill="#FFCF2D"/>
<defs>
<filter id="filter0_d_2435_8152" x="0" y="12.7236" width="443" height="464.961" filterUnits="userSpaceOnUse" color-interpolation-filters="sRGB">
<feFlood flood-opacity="0" result="BackgroundImageFix"/>
<feColorMatrix in="SourceAlpha" type="matrix" values="0 0 0 0 0 0 0 0 0 0 0 0 0 0 0 0 0 0 127 0" result="hardAlpha"/>
<feOffset dy="4"/>
<feGaussianBlur stdDeviation="2"/>
<feComposite in2="hardAlpha" operator="out"/>
<feColorMatrix type="matrix" values="0 0 0 0 0 0 0 0 0 0 0 0 0 0 0 0 0 0 0.25 0"/>
<feBlend mode="normal" in2="BackgroundImageFix" result="effect1_dropShadow_2435_8152"/>
<feBlend mode="normal" in="SourceGraphic" in2="effect1_dropShadow_2435_8152" result="shape"/>
</filter>
</defs>
</svg>
