<svg width="20" height="20" viewBox="0 0 20 20" fill="none" xmlns="http://www.w3.org/2000/svg">
<path d="M14.6359 0.836822L12.3215 0.833008C9.72134 0.833008 8.04102 2.60392 8.04102 5.34487V7.42513H5.71401C5.51293 7.42513 5.3501 7.59259 5.3501 7.79915V10.8132C5.3501 11.0198 5.51312 11.1871 5.71401 11.1871H8.04102V18.7925C8.04102 18.9991 8.20386 19.1663 8.40494 19.1663H11.441C11.6421 19.1663 11.8049 18.9989 11.8049 18.7925V11.1871H14.5258C14.7268 11.1871 14.8897 11.0198 14.8897 10.8132L14.8908 7.79915C14.8908 7.69997 14.8524 7.60499 14.7842 7.5348C14.7161 7.46462 14.6232 7.42513 14.5267 7.42513H11.8049V5.66166C11.8049 4.81407 12.0016 4.38379 13.0764 4.38379L14.6355 4.38322C14.8364 4.38322 14.9992 4.21576 14.9992 4.00939V1.21065C14.9992 1.00447 14.8366 0.837204 14.6359 0.836822Z" fill="#1E212C"/>
</svg>
