<svg width="20" height="20" viewBox="0 0 20 20" fill="none" xmlns="http://www.w3.org/2000/svg">
<path d="M18.317 6.56704C18.2779 5.68147 18.1347 5.07266 17.9296 4.54511C17.718 3.98513 17.3924 3.48378 16.9658 3.06701C16.549 2.64375 16.0444 2.31485 15.4909 2.10653C14.9603 1.90139 14.3547 1.75818 13.4691 1.71914C12.5769 1.67679 12.2937 1.66699 10.0309 1.66699C7.76806 1.66699 7.48483 1.67679 6.59596 1.71583C5.7104 1.75487 5.10158 1.89821 4.57416 2.10322C4.01405 2.31485 3.51271 2.64044 3.09593 3.06701C2.67267 3.48378 2.34391 3.98843 2.13546 4.54193C1.93032 5.07266 1.78711 5.67817 1.74807 6.56373C1.70572 7.45591 1.69592 7.73914 1.69592 10.002C1.69592 12.2648 1.70572 12.548 1.74476 13.4369C1.78381 14.3224 1.92714 14.9313 2.13228 15.4588C2.34391 16.0188 2.67267 16.5201 3.09593 16.9369C3.51271 17.3602 4.01736 17.6891 4.57085 17.8974C5.10158 18.1025 5.70709 18.2457 6.59278 18.2848C7.48152 18.3239 7.76488 18.3336 10.0277 18.3336C12.2905 18.3336 12.5737 18.3239 13.4626 18.2848C14.3482 18.2457 14.957 18.1025 15.4844 17.8974C16.6045 17.4643 17.49 16.5788 17.9231 15.4588C18.1281 14.9281 18.2715 14.3224 18.3105 13.4369C18.3495 12.548 18.3593 12.2648 18.3593 10.002C18.3593 7.73914 18.356 7.45591 18.317 6.56704ZM16.8161 13.3718C16.7803 14.1857 16.6435 14.6253 16.5296 14.9183C16.2495 15.6444 15.6733 16.2206 14.9472 16.5007C14.6542 16.6146 14.2114 16.7513 13.4007 16.7871C12.5216 16.8263 12.2579 16.8359 10.0342 16.8359C7.81041 16.8359 7.54346 16.8263 6.66756 16.7871C5.8536 16.7513 5.41407 16.6146 5.12104 16.5007C4.75972 16.3671 4.43083 16.1555 4.16387 15.8788C3.88713 15.6085 3.6755 15.2829 3.54196 14.9216C3.428 14.6286 3.29128 14.1857 3.25555 13.3751C3.21637 12.496 3.20671 12.2322 3.20671 10.0084C3.20671 7.78467 3.21637 7.51772 3.25555 6.64195C3.29128 5.82799 3.428 5.38845 3.54196 5.09542C3.6755 4.73397 3.88713 4.40521 4.16718 4.13813C4.43731 3.86138 4.7629 3.64975 5.12435 3.51634C5.41737 3.40238 5.86022 3.26566 6.67087 3.2298C7.54995 3.19075 7.81372 3.18096 10.0374 3.18096C12.2644 3.18096 12.5281 3.19075 13.404 3.2298C14.2179 3.26566 14.6575 3.40238 14.9505 3.51634C15.3118 3.64975 15.6407 3.86138 15.9077 4.13813C16.1844 4.40839 16.396 4.73397 16.5296 5.09542C16.6435 5.38845 16.7803 5.83117 16.8161 6.64195C16.8552 7.52103 16.865 7.78467 16.865 10.0084C16.865 12.2322 16.8552 12.4927 16.8161 13.3718Z" fill="#1E212C"/>
<path d="M10.0309 5.72052C7.6672 5.72052 5.74943 7.63816 5.74943 10.002C5.74943 12.3658 7.6672 14.2834 10.0309 14.2834C12.3947 14.2834 14.3123 12.3658 14.3123 10.002C14.3123 7.63816 12.3947 5.72052 10.0309 5.72052ZM10.0309 12.7792C8.49744 12.7792 7.25361 11.5355 7.25361 10.002C7.25361 8.4684 8.49744 7.22469 10.0309 7.22469C11.5644 7.22469 12.8081 8.4684 12.8081 10.002C12.8081 11.5355 11.5644 12.7792 10.0309 12.7792Z" fill="#1E212C"/>
<path d="M15.4813 5.55124C15.4813 6.10321 15.0337 6.55076 14.4816 6.55076C13.9296 6.55076 13.4821 6.10321 13.4821 5.55124C13.4821 4.99915 13.9296 4.55172 14.4816 4.55172C15.0337 4.55172 15.4813 4.99915 15.4813 5.55124Z" fill="#1E212C"/>
</svg>
