<svg width="16" height="16" viewBox="0 0 16 16" fill="none" xmlns="http://www.w3.org/2000/svg">
<path fill-rule="evenodd" clip-rule="evenodd" d="M5.66671 1.94759C5.11442 1.94759 4.66671 2.39531 4.66671 2.94759V13.0518C4.66671 13.604 5.11442 14.0518 5.66671 14.0518H10.3334C10.8857 14.0518 11.3334 13.604 11.3334 13.0518V2.94759C11.3334 2.39531 10.8857 1.94759 10.3334 1.94759H10.2778L10.1154 2.33723C10.0119 2.58564 9.76916 2.74744 9.50004 2.74744H6.50004C6.23092 2.74744 5.9882 2.58564 5.88467 2.33723L5.72229 1.94759H5.66671ZM3.33337 2.94759C3.33337 1.65893 4.37804 0.614258 5.66671 0.614258H10.3334C11.622 0.614258 12.6667 1.65893 12.6667 2.94759V13.0518C12.6667 14.3404 11.622 15.3851 10.3334 15.3851H5.66671C4.37804 15.3851 3.33337 14.3404 3.33337 13.0518V2.94759Z" fill="#1E212C"/>
</svg>
