<svg width="16" height="16" viewBox="0 0 16 16" fill="none" xmlns="http://www.w3.org/2000/svg">
<path fill-rule="evenodd" clip-rule="evenodd" d="M15.1666 12.0003V4.66699C15.1666 3.56242 14.2712 2.66699 13.1666 2.66699L2.83325 2.667C1.72868 2.667 0.833252 3.56243 0.833252 4.667V12.0003C0.833252 13.1049 1.72868 14.0003 2.83325 14.0003L13.1666 14.0003C14.2712 14.0003 15.1666 13.1049 15.1666 12.0003ZM13.8333 6.1733V12.0003C13.8333 12.3685 13.5348 12.667 13.1666 12.667L2.83325 12.667C2.46506 12.667 2.16659 12.3685 2.16659 12.0003L2.16659 6.17321L6.87536 9.37518C7.55408 9.83671 8.44588 9.83671 9.1246 9.37518L13.8333 6.1733ZM13.8257 4.56607C13.777 4.24577 13.5005 4.00033 13.1666 4.00033L2.83325 4.00034C2.4994 4.00034 2.22287 4.24573 2.17419 4.56599L7.62511 8.27261C7.85135 8.42646 8.14862 8.42646 8.37486 8.27261L13.8257 4.56607Z" fill="#1E212C"/>
</svg>
